<?xml version="1.0" encoding="UTF-8"?><svg id="a" xmlns="http://www.w3.org/2000/svg" width="816" height="837.06" xmlns:xlink="http://www.w3.org/1999/xlink" viewBox="0 0 816 837.06"><defs><style>.j{fill:url(#c);}.k{fill:url(#f);}.l{fill:url(#g);}.m{fill:url(#b);}.n{fill:url(#i);}.o{fill:url(#h);}.p{fill:url(#d);}.q{fill:url(#e);}</style><linearGradient id="b" x1="172.93" y1="714.61" x2="642.3" y2="714.61" gradientTransform="matrix(1, 0, 0, 1, 0, 0)" gradientUnits="userSpaceOnUse"><stop offset="0" stop-color="#66e8f2"/><stop offset=".15" stop-color="#5ddeed"/><stop offset=".4" stop-color="#48c5e2"/><stop offset=".71" stop-color="#249ccf"/><stop offset="1" stop-color="#0071bc"/></linearGradient><linearGradient id="c" x1="646.53" y1="14.83" x2="646.53" y2="736.78" gradientTransform="matrix(1, 0, 0, 1, 0, 0)" gradientUnits="userSpaceOnUse"><stop offset="0" stop-color="#f2f2f2"/><stop offset="1" stop-color="gray"/></linearGradient><linearGradient id="d" x1="147.74" y1="736.19" x2="147.74" y2=".06" gradientTransform="matrix(1, 0, 0, 1, 0, 0)" gradientUnits="userSpaceOnUse"><stop offset="0" stop-color="#f2f2f2"/><stop offset="1" stop-color="gray"/></linearGradient><linearGradient id="e" x1="321.81" y1="736.19" x2="321.81" y2=".06" xlink:href="#d"/><linearGradient id="f" x1="164.06" y1="681.56" x2="261.94" y2="681.56" gradientTransform="translate(32.2 -9.24) rotate(2.69)" xlink:href="#b"/><linearGradient id="g" x1="200.99" y1="704.06" x2="351.01" y2="704.06" xlink:href="#b"/><linearGradient id="h" x1="555" y1="681.56" x2="653" y2="681.56" gradientTransform="translate(-31.3 29.08) rotate(-2.69)" xlink:href="#b"/><linearGradient id="i" x1="465.99" y1="704.06" x2="616.01" y2="704.06" xlink:href="#b"/></defs><path d="M408,803.56c-85.35,0-166.63-26.77-235.07-77.41l74.36-100.48c46.76,34.6,102.33,52.89,160.71,52.89s113.54-18.15,160.18-52.5l74.12,100.66c-68.27,50.27-149.29,76.84-234.3,76.84Z" style="fill:url(#b);"/><path d="M649.71,736.78l-88.94-120.79c66.87-49.24,105.23-125.03,105.23-207.93,0-102.69-60.83-195.57-154.98-236.63-10.99-4.79-22.41-8.84-33.96-12.04L517.1,14.83c18.32,5.07,36.45,11.5,53.89,19.11,148.84,64.92,245.02,211.77,245.02,374.12,0,65.01-15.69,129.73-45.38,187.16-28.69,55.5-70.5,104.45-120.91,141.57Z" style="fill:url(#c);"/><g><path d="M165.5,736.19c-50.19-37.14-91.8-86.04-120.35-141.42C15.61,537.46,0,472.9,0,408.06c0-78.05,22.13-153.93,63.99-219.44,40.7-63.69,98.09-114.78,165.97-147.74l65.52,134.93c-89.74,43.58-145.48,132.57-145.48,232.26,0,82.66,38.17,158.31,104.73,207.56l-89.23,120.57Z" style="fill:url(#d);"/><polygon points="255.26 248.36 443 76.87 200.63 0 255.26 248.36" style="fill:url(#e);"/></g><path d="M180.97,766.56c-2.97,0-5.98-.66-8.82-2.06-9.91-4.88-13.98-16.87-9.1-26.78l64.03-130c4.88-9.91,16.87-13.99,26.78-9.1,9.91,4.88,13.98,16.87,9.1,26.78l-64.03,130c-3.48,7.07-10.58,11.17-17.96,11.17Z" style="fill:url(#f);"/><path d="M230.98,837.06c-4.01,0-8.09-.81-12-2.52-15.18-6.63-22.11-24.32-15.48-39.5l90-206c6.63-15.18,24.32-22.11,39.5-15.48,15.18,6.63,22.11,24.32,15.48,39.5l-90,206c-4.92,11.27-15.94,18-27.51,18Z" style="fill:url(#g);"/><path d="M636.03,765.13c-7.32,0-14.36-4.03-17.88-11.01l-64.03-127.14c-4.97-9.86-1-21.89,8.87-26.86,9.86-4.97,21.89-1,26.86,8.87l64.03,127.14c4.97,9.86,1,21.89-8.87,26.86-2.88,1.45-5.96,2.14-8.98,2.14Z" style="fill:url(#h);"/><path d="M586.02,837.06c-11.56,0-22.58-6.72-27.51-18l-90-206c-6.63-15.18,.3-32.87,15.48-39.5,15.19-6.63,32.87,.3,39.5,15.48l90,206c6.63,15.18-.3,32.87-15.48,39.5-3.91,1.71-7.99,2.52-12,2.52Z" style="fill:url(#i);"/></svg>